{"title":"A.Guy.Thing.2003.720p.BRRip.XviD.AC3-PsychoLogic","uid":6595378,"size":2647795417,"categoryP":"video","categoryS":"hd___movies","magnet":"?xt=urn:btih:57ecc8f1c6d1ff3e7fd9c83ec30a7242308896de&amp;dn=A.Guy.Thing.2003.720p.BRRip.XviD.AC3-PsychoLogic&amp;tr=udp%3A%2F%2Ftracker.openbittorrent.com%3A80&amp;tr=udp%3A%2F%2Fopen.demonii.com%3A1337&amp;tr=udp%3A%2F%2Ftracker.coppersurfer.tk%3A6969&amp;tr=udp%3A%2F%2Fexodus.desync.com%3A6969","seeders":0,"leechers":1,"uploader":"PsychoLogic","files":7,"time":1312992522,"description":"Release Information:\n\nA.Guy.Thing.2003.720p.BRRip.XviD.AC3-PsychoLogic\n\nSource                           : A.Guy.Thing.2003.720p.BluRay.x264-Japhson\nSubtitles                        : English, Greek, Romanian\nLanguage                         : English\nEncoded By                       : PsychoLogic\nSample Included                  : Yes\n\nMovie Information                : http://www.imdb.com/title/tt0295289/\nGenre                            : Comedy | Romance \nDirector                         : Chris Koch\nCast                             : Jason Lee, Julia Stiles and Selma Blair\nPlot                             : When a man wakes up the morning after his bachelor party in bed with a strange woman he presumes he must have cheated on his fiancee. \n\nGeneral\nFormat                           : AVI\nFormat/Info                      : Audio Video Interleave\nFormat profile                   : OpenDML\nFile size                        : 2.44 GiB\nDuration                         : 1h 41mn\nOverall bit rate                 : 3 444 Kbps\nWriting application              : VirtualDubMod 1.5.10.2 (build 2542/release)\nWriting library                  : VirtualDubMod build 2542/release\n\nVideo\nID                               : 0\nFormat                           : MPEG-4 Visual\nFormat profile                   : Advanced Simple@L5\nFormat settings, BVOP            : 2\nFormat settings, QPel            : No\nFormat settings, GMC             : No warppoints\nFormat settings, Matrix          : Default (H.263)\nCodec ID                         : XVID\nCodec ID/Hint                    : XviD\nDuration                         : 1h 41mn\nBit rate                         : 2 984 Kbps\nWidth                            : 1 280 pixels\nHeight                           : 688 pixels\nDisplay aspect ratio             : 1.860\nFrame rate                       : 23.976 fps\nColor space                      : YUV\nChroma subsampling               : 4:2:0\nBit depth                        : 8 bits\nScan type                        : Progressive\nCompression mode                 : Lossy\nBits/(Pixel*Frame)               : 0.141\nStream size                      : 2.12 GiB (87%)\nWriting library                  : XviD 1.2.1 (UTC 2008-12-04)\n\nAudio\nID                               : 1\nFormat                           : AC-3\nFormat/Info                      : Audio Coding 3\nMode extension                   : CM (complete main)\nCodec ID                         : 2000\nDuration                         : 1h 41mn\nBit rate mode                    : Constant\nBit rate                         : 448 Kbps\nChannel(s)                       : 6 channels\nChannel positions                : Front: L C R, Side: L R, LFE\nSampling rate                    : 48.0 KHz\nBit depth                        : 16 bits\nCompression mode                 : Lossy\nStream size                      : 325 MiB (13%)\nAlignment                        : Split accross interleaves\nInterleave, duration             : 42 ms (1.00 video frame)\nInterleave, preload duration     : 500 ms\n\n","torrent":{"xt":"urn:btih:57ecc8f1c6d1ff3e7fd9c83ec30a7242308896de","amp;dn":"A.Guy.Thing.2003.720p.BRRip.XviD.AC3-PsychoLogic","amp;tr":["udp%3A%2F%2Ftracker.openbittorrent.com%3A80","udp%3A%2F%2Fopen.demonii.com%3A1337","udp%3A%2F%2Ftracker.coppersurfer.tk%3A6969","udp%3A%2F%2Fexodus.desync.com%3A6969"],"infoHash":"57ecc8f1c6d1ff3e7fd9c83ec30a7242308896de","infoHashBuffer":{"type":"Buffer","data":[87,236,200,241,198,209,255,62,127,217,200,62,195,10,114,66,48,136,150,222]},"announce":[],"urlList":[]}}